<?xml version="1.0" encoding="UTF-8"?>
<svg width="22px" height="22px" viewBox="0 0 22 22" version="1.1" xmlns="http://www.w3.org/2000/svg" xmlns:xlink="http://www.w3.org/1999/xlink">
    <!-- Generator: Sketch 39.1 (31720) - http://www.bohemiancoding.com/sketch -->
    <title>call copy 2</title>
    <desc>Created with Sketch.</desc>
    <defs>
        <path d="M3.6,7.8 C5,10.6 7.4,12.9 10.2,14.4 L12.4,12.2 C12.7,11.9 13.1,11.8 13.4,12 C14.5,12.4 15.7,12.6 17,12.6 C17.6,12.6 18,13 18,13.6 L18,17 C18,17.6 17.6,18 17,18 C7.6,18 0,10.4 0,1 C0,0.4 0.4,0 1,0 L4.5,0 C5.1,0 5.5,0.4 5.5,1 C5.5,2.2 5.7,3.4 6.1,4.6 C6.2,4.9 6.1,5.3 5.9,5.6 L3.6,7.8 L3.6,7.8 Z" id="path-1"></path>
        <mask id="mask-2" maskContentUnits="userSpaceOnUse" maskUnits="objectBoundingBox" x="-1.5" y="-1.5" width="21" height="21">
            <rect x="-1.5" y="-1.5" width="21" height="21" fill="white"></rect>
            <use xlink:href="#path-1" fill="black"></use>
        </mask>
    </defs>
    <g id="Page-1" stroke="none" stroke-width="1" fill="none" fill-rule="evenodd" stroke-opacity="0.5">
        <g id="Terms-of-use-Screen" transform="translate(-49.000000, -328.000000)" stroke="#0B0A3E" stroke-width="3">
            <g id="Group-3" transform="translate(20.000000, 102.000000)">
                <g id="confirm-Phone-Number" transform="translate(31.000000, 228.000000)">
                    <g id="call-copy-2">
                        <use id="Shape" mask="url(#mask-2)" xlink:href="#path-1"></use>
                    </g>
                </g>
            </g>
        </g>
    </g>
</svg>