<?xml version="1.0" encoding="UTF-8"?>
<svg width="26px" height="17px" viewBox="0 0 26 17" version="1.1" xmlns="http://www.w3.org/2000/svg" xmlns:xlink="http://www.w3.org/1999/xlink">
    <!-- Generator: Sketch 39.1 (31720) - http://www.bohemiancoding.com/sketch -->
    <title>group</title>
    <desc>Created with Sketch.</desc>
    <defs></defs>
    <g id="Page-1" stroke="none" stroke-width="1" fill="none" fill-rule="evenodd" stroke-opacity="0.48">
        <g id="myKOKO-Pre-order-Fuel-user-warning" transform="translate(-257.000000, -729.000000)" stroke="#0B0A3E">
            <g id="Bottom-nav-simple" transform="translate(0.000000, 716.000000)">
                <g id="Group-5" transform="translate(180.000000, 12.000000)">
                    <g id="Group-7" transform="translate(0.000000, 2.000000)">
                        <g id="group" transform="translate(78.000000, 0.000000)">
                            <path d="M16.3636364,6.54545455 C18.2181818,6.54545455 19.6363636,5.12727273 19.6363636,3.27272727 C19.6363636,1.41818182 18.2181818,0 16.3636364,0 C14.5090909,0 13.0909091,1.41818182 13.0909091,3.27272727 C13.0909091,5.12727273 14.5090909,6.54545455 16.3636364,6.54545455 L16.3636364,6.54545455 Z M7.63636364,6.54545455 C9.49090909,6.54545455 10.9090909,5.12727273 10.9090909,3.27272727 C10.9090909,1.41818182 9.49090909,0 7.63636364,0 C5.78181818,0 4.36363636,1.41818182 4.36363636,3.27272727 C4.36363636,5.12727273 5.78181818,6.54545455 7.63636364,6.54545455 L7.63636364,6.54545455 Z M7.63636364,8.72727273 C5.12727273,8.72727273 0,10.0363636 0,12.5454545 L0,15.2727273 L15.2727273,15.2727273 L15.2727273,12.5454545 C15.2727273,10.0363636 10.1454545,8.72727273 7.63636364,8.72727273 L7.63636364,8.72727273 Z M16.3636364,8.72727273 C16.0363636,8.72727273 15.7090909,8.72727273 15.2727273,8.83636364 C16.5818182,9.70909091 17.4545455,11.0181818 17.4545455,12.5454545 L17.4545455,15.2727273 L24,15.2727273 L24,12.5454545 C24,10.0363636 18.8727273,8.72727273 16.3636364,8.72727273 L16.3636364,8.72727273 Z" id="Shape"></path>
                        </g>
                    </g>
                </g>
            </g>
        </g>
    </g>
</svg>