<?xml version="1.0" encoding="UTF-8"?>
<svg width="22px" height="22px" viewBox="0 0 22 22" version="1.1" xmlns="http://www.w3.org/2000/svg" xmlns:xlink="http://www.w3.org/1999/xlink">
    <!-- Generator: Sketch 43.1 (39012) - http://www.bohemiancoding.com/sketch -->
    <title>call copy</title>
    <desc>Created with Sketch.</desc>
    <defs></defs>
    <g id="Page-1" stroke="none" stroke-width="1" fill="none" fill-rule="evenodd" stroke-opacity="0.5">
        <g id="Terms-of-use-Screen" transform="translate(-49.000000, -237.000000)" stroke="#0B0A3E" stroke-width="1.5">
            <g id="Group-3" transform="translate(20.000000, 102.000000)">
                <g id="Phone-Number" transform="translate(31.000000, 137.000000)">
                    <g id="call-copy">
                        <path d="M4.52745313,7.95072942 L6.41841698,6.14198139 L6.52403772,6.01602515 C6.85324894,5.52220832 6.98814065,4.89271369 6.81151247,4.36282918 C6.43667111,3.2383051 6.25,2.11827841 6.25,1 C6.25,-0.0142135624 5.51421356,-0.75 4.5,-0.75 L1,-0.75 C-0.0142135624,-0.75 -0.75,-0.0142135624 -0.75,1 C-0.75,10.8142136 7.18578644,18.75 17,18.75 C18.0142136,18.75 18.75,18.0142136 18.75,17 L18.75,13.6 C18.75,12.5857864 18.0142136,11.85 17,11.85 C15.8121089,11.85 14.7212168,11.6725702 13.7239374,11.3194248 C13.1177386,10.9781261 12.3843597,11.1549801 11.8696699,11.6696699 L10.0703458,13.468994 C7.71293321,12.100699 5.76502575,10.1757959 4.52745313,7.95072942 Z" id="Shape"></path>
                    </g>
                </g>
            </g>
        </g>
    </g>
</svg>